<mxfile host="app.diagrams.net" modified="2023-05-23T07:27:26.190Z" agent="Mozilla/5.0 (Macintosh; Intel Mac OS X 10_15_7) AppleWebKit/537.36 (KHTML, like Gecko) Chrome/113.0.0.0 Safari/537.36" version="21.3.2" etag="cMjs6T8P3G5dxFlSWjDz" type="github">
  <diagram name="第 1 页" id="Z3FK0SrHvx_W68bewzzx">
    <mxGraphModel>
      <root>
        <mxCell id="0" />
        <mxCell id="1" parent="0" />
      </root>
    </mxGraphModel>
  </diagram>
</mxfile>
